<svg width="22" height="22" viewBox="0 0 22 22" fill="none" xmlns="http://www.w3.org/2000/svg">
<path d="M19.8235 11H8.64706H19.8235ZM17.4706 14.75L21 11L17.4706 7.25M11.5882 4.75V3.5C11.5882 2.83696 11.3403 2.20107 10.8991 1.73223C10.4578 1.26339 9.85933 1 9.23529 1H3.35294C2.7289 1 2.13042 1.26339 1.68916 1.73223C1.2479 2.20107 1 2.83696 1 3.5V18.5C1 19.163 1.2479 19.7989 1.68916 20.2678C2.13042 20.7366 2.7289 21 3.35294 21H9.23529C9.85933 21 10.4578 20.7366 10.8991 20.2678C11.3403 19.7989 11.5882 19.163 11.5882 18.5V17.25" fill="white"/>
<path d="M19.8235 11H8.64706M17.4706 14.75L21 11L17.4706 7.25M11.5882 4.75V3.5C11.5882 2.83696 11.3403 2.20107 10.8991 1.73223C10.4578 1.26339 9.85933 1 9.23529 1H3.35294C2.7289 1 2.13042 1.26339 1.68916 1.73223C1.2479 2.20107 1 2.83696 1 3.5V18.5C1 19.163 1.2479 19.7989 1.68916 20.2678C2.13042 20.7366 2.7289 21 3.35294 21H9.23529C9.85933 21 10.4578 20.7366 10.8991 20.2678C11.3403 19.7989 11.5882 19.163 11.5882 18.5V17.25" stroke="black" stroke-width="2" stroke-linecap="round" stroke-linejoin="round"/>
</svg>
